<?xml version="1.0" standalone="no"?>
<!DOCTYPE svg PUBLIC "-//W3C//DTD SVG 20010904//EN"
 "http://www.w3.org/TR/2001/REC-SVG-20010904/DTD/svg10.dtd">
<svg version="1.0" xmlns="http://www.w3.org/2000/svg"
 width="200.000000pt" height="200.000000pt" viewBox="0 0 200.000000 200.000000"
 preserveAspectRatio="xMidYMid meet">
<metadata>
Created by potrace 1.11, written by Peter Selinger 2001-2013
</metadata>
<g transform="translate(0.000000,200.000000) scale(0.100000,-0.100000)"
fill="#000000" stroke="none">
<path d="M947 1629 c-87 -21 -164 -83 -207 -167 -12 -23 -27 -41 -34 -40 -56
11 -154 -53 -182 -120 -36 -88 -3 -195 75 -242 46 -28 55 -36 107 -91 15 -16
33 -29 41 -29 17 0 16 -5 -3 -35 -15 -23 -22 -44 -23 -75 -1 -12 -14 -15 -62
-13 -71 1 -89 -3 -89 -24 0 -21 79 -303 95 -339 15 -33 37 -54 75 -75 37 -20
350 -22 393 -3 66 29 89 61 117 165 11 41 31 113 44 161 22 80 23 89 9 104 -9
8 -25 14 -37 13 -11 0 -37 -1 -57 0 -32 1 -37 4 -43 32 -3 19 -23 47 -48 69
-31 29 -42 47 -44 74 -3 33 -1 36 34 46 20 5 54 21 75 35 31 22 38 23 43 11 8
-21 62 -53 100 -59 40 -6 100 15 125 44 81 92 27 238 -90 243 -36 1 -38 3 -39
37 -4 100 -72 203 -166 251 -60 31 -148 42 -209 27z m-78 -588 c-19 -34 -48
-61 -64 -61 -22 0 -75 28 -75 40 0 6 8 10 18 10 9 0 35 11 57 23 30 17 44 21
57 13 12 -7 14 -15 7 -25z"/>
</g>
</svg>
